<svg width="18" height="18" viewBox="0 0 18 18" fill="none" xmlns="http://www.w3.org/2000/svg">
<path d="M12.251 1.4994C14.792 1.4994 16.4998 3.2829 16.4998 5.93715V12.0624C16.4998 14.7167 14.792 16.4994 12.2503 16.4994H5.74926C3.20751 16.4994 1.49976 14.7167 1.49976 12.0624V5.93715C1.49976 3.2829 3.20751 1.4994 5.74926 1.4994H12.251ZM6.63051 7.04866C5.55501 7.04866 4.67976 7.9239 4.67976 8.9994C4.67976 10.0757 5.55501 10.9509 6.63051 10.9509C7.50951 10.9509 8.24601 10.3629 8.48901 9.5619H10.073V10.3884C10.073 10.6989 10.325 10.9509 10.6355 10.9509C10.946 10.9509 11.198 10.6989 11.198 10.3884V9.5619H12.1955V10.3884C12.1955 10.6989 12.4475 10.9509 12.758 10.9509C13.0685 10.9509 13.3205 10.6989 13.3205 10.3884V8.9994C13.3205 8.6889 13.0685 8.4369 12.758 8.4369H8.48901C8.24601 7.63665 7.50951 7.04866 6.63051 7.04866ZM6.63058 8.17358C7.08583 8.17358 7.45708 8.54408 7.45708 9.00008C7.45708 9.45533 7.08583 9.82583 6.63058 9.82583C6.17533 9.82583 5.80408 9.45533 5.80408 9.00008C5.80408 8.54408 6.17533 8.17358 6.63058 8.17358Z" fill="#242424"/>
</svg>
